<svg width="58" height="60" viewBox="0 0 58 60" fill="none" xmlns="http://www.w3.org/2000/svg">
    <circle cx="27.5" cy="27.5" r="27" transform="matrix(-1 0 0 1 55 5)" fill="#FF7F7F" stroke="white"/>
    <g clip-path="url(#clip0_605_48)">
        <path d="M27.5 29.2121V25.2818C27.5 25.0651 27.4356 24.8532 27.3152 24.673C27.1948 24.4928 27.0236 24.3524 26.8234 24.2695C26.6231 24.1865 26.4028 24.1648 26.1902 24.2071C25.9777 24.2494 25.7824 24.3537 25.6291 24.5069L18.4107 31.7253C18.2053 31.9308 18.0898 32.2095 18.0898 32.5002C18.0898 32.7908 18.2053 33.0695 18.4107 33.275L25.6291 40.4934C25.7824 40.6466 25.9777 40.751 26.1902 40.7933C26.4028 40.8355 26.6231 40.8138 26.8234 40.7309C27.0236 40.6479 27.1948 40.5075 27.3152 40.3273C27.4356 40.1471 27.5 39.9353 27.5 39.7185V35.7882H30.788V29.2121H27.5Z" stroke="white" stroke-width="1.75" stroke-linecap="round" stroke-linejoin="round"/>
        <path d="M37.3641 29.2119V35.788" stroke="white" stroke-width="1.75" stroke-linecap="round" stroke-linejoin="round"/>
        <path d="M34.0761 29.2119V35.788" stroke="white" stroke-width="1.75" stroke-linecap="round" stroke-linejoin="round"/>
    </g>
    <defs>
        <clipPath id="clip0_605_48">
            <rect width="26.3043" height="26.3043" fill="white" transform="matrix(-1 0 0 1 40.6522 19.3479)"/>
        </clipPath>
    </defs>
</svg>
