<svg width="20" height="17" viewBox="0 0 20 17" fill="none" xmlns="http://www.w3.org/2000/svg">
<path d="M19 1.10031C18.1 1.5447 17.218 1.72518 16.3 1.99816C15.2911 0.850901 13.7953 0.787416 12.358 1.32976C10.9207 1.8721 9.9793 3.19803 10 4.71894V5.62587C7.0795 5.70114 4.4785 4.36071 2.8 1.99816C2.8 1.99816 -0.9638 8.73935 6.4 11.9744C4.7152 13.1053 3.0349 13.868 1 13.7882C3.9772 15.4234 7.2217 15.9857 10.0306 15.164C13.2526 14.2208 15.9004 11.7875 16.9165 8.14259C17.2196 7.03403 17.3701 5.88875 17.3638 4.73889C17.3638 4.51307 18.7228 2.22489 19 1.0994V1.10031Z" stroke="#2C3E50" stroke-linecap="round" stroke-linejoin="round"/>
</svg>
